<svg width="40" height="40" viewBox="0 0 40 40" fill="none" xmlns="http://www.w3.org/2000/svg">
<path d="M25 23.3333C20.55 23.3333 11.6667 25.55 11.6667 30V33.3333H38.3333V30C38.3333 25.55 29.45 23.3333 25 23.3333ZM9.99999 16.6667V11.6667H6.66666V16.6667H1.66666V20H6.66666V25H9.99999V20H15V16.6667M25 20C26.7681 20 28.4638 19.2976 29.714 18.0474C30.9643 16.7971 31.6667 15.1014 31.6667 13.3333C31.6667 11.5652 30.9643 9.86953 29.714 8.61929C28.4638 7.36904 26.7681 6.66666 25 6.66666C23.2319 6.66666 21.5362 7.36904 20.2859 8.61929C19.0357 9.86953 18.3333 11.5652 18.3333 13.3333C18.3333 15.1014 19.0357 16.7971 20.2859 18.0474C21.5362 19.2976 23.2319 20 25 20Z" fill="black"/>
</svg>
