<svg width="32" height="32" viewBox="0 0 32 32" fill="none" xmlns="http://www.w3.org/2000/svg">
<path d="M19.64 27.7733L23.44 24L19.64 20.2267L21.5333 18.3467L25.3333 22.0933L29.0666 18.3467L30.96 20.2267L27.2133 24L30.96 27.7733L29.0666 29.6533L25.3333 25.8667L21.5333 29.6533L19.64 27.7733ZM17.3333 26.5067C17.3866 26.9067 17.2533 27.3333 16.9466 27.6133C16.8233 27.7369 16.6768 27.835 16.5155 27.9019C16.3542 27.9688 16.1813 28.0033 16.0066 28.0033C15.832 28.0033 15.6591 27.9688 15.4978 27.9019C15.3365 27.835 15.19 27.7369 15.0666 27.6133L9.71997 22.2667C9.57455 22.1245 9.46398 21.9506 9.3969 21.7587C9.32982 21.5667 9.30806 21.3618 9.3333 21.16V14.3333L2.94664 6.16C2.73012 5.88204 2.63242 5.52968 2.67489 5.17991C2.71736 4.83014 2.89655 4.5114 3.17331 4.29333C3.42664 4.10667 3.70664 4 3.99997 4H22.6666C22.96 4 23.24 4.10667 23.4933 4.29333C23.7701 4.5114 23.9492 4.83014 23.9917 5.17991C24.0342 5.52968 23.9365 5.88204 23.72 6.16L17.3333 14.3333V26.5067ZM6.71997 6.66667L12 13.4133V20.7733L14.6666 23.44V13.4L19.9466 6.66667H6.71997Z" fill="black"/>
</svg>
