<svg width="22" height="25" viewBox="0 0 22 25" fill="none" xmlns="http://www.w3.org/2000/svg">
<path d="M15.0001 22.5067C15.0534 22.9067 14.9201 23.3333 14.6134 23.6133C14.49 23.7369 14.3435 23.835 14.1822 23.9019C14.0209 23.9688 13.848 24.0033 13.6734 24.0033C13.4988 24.0033 13.3259 23.9688 13.1646 23.9019C13.0033 23.835 12.8567 23.7369 12.7334 23.6133L7.38672 18.2667C7.2413 18.1245 7.13073 17.9506 7.06365 17.7587C6.99657 17.5667 6.97481 17.3618 7.00005 17.16V10.3333L0.613386 2.16C0.396864 1.88204 0.299164 1.52968 0.341637 1.17991C0.384109 0.830136 0.563299 0.511395 0.840053 0.293333C1.09339 0.106667 1.37339 0 1.66672 0H20.3334C20.6267 0 20.9067 0.106667 21.1601 0.293333C21.4368 0.511395 21.616 0.830136 21.6585 1.17991C21.7009 1.52968 21.6032 1.88204 21.3867 2.16L15.0001 10.3333V22.5067ZM4.38672 2.66667L9.66672 9.41333V16.7733L12.3334 19.44V9.4L17.6134 2.66667H4.38672Z" fill="black"/>
</svg>
